<svg xmlns="http://www.w3.org/2000/svg" viewBox="0 0 120 120" role="img" aria-labelledby="title desc">
  <title id="title">Devya Ceylon Ayurveda Centre</title>
  <desc id="desc">A premium green and gold Ayurveda leaf emblem.</desc>
  <defs>
    <linearGradient id="g1" x1="0" y1="0" x2="1" y2="1"><stop offset="0" stop-color="#235b3d"/><stop offset="1" stop-color="#0d3825"/></linearGradient>
    <linearGradient id="g2" x1="0" y1="0" x2="1" y2="1"><stop offset="0" stop-color="#f4d58d"/><stop offset="1" stop-color="#c9933a"/></linearGradient>
  </defs>
  <circle cx="60" cy="60" r="56" fill="#fffaf0" stroke="url(#g2)" stroke-width="3"/>
  <path d="M61 93C41 79 31 60 33 34c16 2 29 10 36 23 7-13 17-21 29-24 2 25-9 45-31 60z" fill="url(#g1)"/>
  <path d="M60 89c1-25 0-41-8-58M60 89c3-22 12-39 30-51" fill="none" stroke="url(#g2)" stroke-width="4" stroke-linecap="round"/>
  <path d="M40 56c8 2 15 6 20 12M79 53c-8 4-13 9-18 16" fill="none" stroke="#f7e7bb" stroke-width="2.5" stroke-linecap="round"/>
</svg>
